<svg width="160" height="53" fill="none" xmlns="http://www.w3.org/2000/svg"><path d="M70.745 33.538h8.835a5.206 5.206 0 0 1-5.206 5.206H64V17.8a6.745 6.745 0 0 1 6.745-6.745v22.483ZM91.839 39.06c-2.156 0-4.102-.46-5.838-1.38-1.709-.921-3.063-2.236-4.062-3.945-.973-1.71-1.46-3.708-1.46-5.995 0-2.262.5-4.247 1.5-5.956.999-1.736 2.366-3.064 4.101-3.984 1.736-.92 3.682-1.38 5.838-1.38s4.102.46 5.837 1.38c1.736.92 3.103 2.248 4.102 3.984 1 1.709 1.499 3.694 1.499 5.956 0 2.26-.512 4.26-1.538 5.995a10.142 10.142 0 0 1-4.141 3.944c-1.736.92-3.682 1.38-5.838 1.38Zm0-5.838c1.288 0 2.38-.473 3.274-1.42.92-.947 1.38-2.3 1.38-4.063 0-1.761-.447-3.116-1.34-4.062-.869-.947-1.947-1.42-3.235-1.42-1.315 0-2.406.473-3.274 1.42-.868.92-1.302 2.274-1.302 4.063 0 1.761.421 3.116 1.263 4.062.867.947 1.945 1.42 3.234 1.42ZM115.201 16.42c1.552 0 2.906.315 4.063.946 1.183.631 2.09 1.46 2.721 2.485a3.116 3.116 0 0 1 3.116-3.116h3.629v21.97c0 2.024-.408 3.852-1.223 5.482-.789 1.657-2.011 2.971-3.668 3.944-1.63.973-3.668 1.46-6.113 1.46-3.261 0-5.904-.776-7.928-2.327-2.025-1.526-3.182-3.603-3.471-6.232h6.665c.211.841.71 1.499 1.499 1.972.789.5 1.762.75 2.919.75 1.394 0 2.498-.408 3.313-1.223.842-.79 1.262-2.065 1.262-3.826v-3.116c-.657 1.025-1.564 1.867-2.721 2.524-1.157.631-2.511.947-4.063.947-1.814 0-3.458-.46-4.93-1.38-1.473-.948-2.643-2.276-3.511-3.985-.841-1.735-1.262-3.734-1.262-5.995s.421-4.247 1.262-5.956c.868-1.709 2.038-3.024 3.511-3.944 1.472-.92 3.116-1.38 4.93-1.38Zm6.784 11.32c0-1.683-.473-3.011-1.42-3.984-.92-.973-2.051-1.46-3.392-1.46-1.341 0-2.485.487-3.431 1.46-.921.946-1.381 2.261-1.381 3.944 0 1.683.46 3.024 1.381 4.023.946.973 2.09 1.46 3.431 1.46 1.341 0 2.472-.487 3.392-1.46.947-.973 1.42-2.3 1.42-3.983ZM142.358 39.06c-2.156 0-4.102-.46-5.838-1.38-1.709-.921-3.063-2.236-4.062-3.945-.973-1.71-1.46-3.708-1.46-5.995 0-2.262.5-4.247 1.499-5.956.999-1.736 2.367-3.064 4.102-3.984 1.736-.92 3.682-1.38 5.838-1.38s4.102.46 5.837 1.38c1.736.92 3.103 2.248 4.102 3.984 1 1.709 1.499 3.694 1.499 5.956 0 2.26-.513 4.26-1.538 5.995a10.142 10.142 0 0 1-4.142 3.944c-1.735.92-3.681 1.38-5.837 1.38Zm0-5.838c1.288 0 2.38-.473 3.274-1.42.92-.947 1.38-2.3 1.38-4.063 0-1.761-.447-3.116-1.341-4.062-.868-.947-1.946-1.42-3.234-1.42-1.315 0-2.406.473-3.274 1.42-.868.92-1.302 2.274-1.302 4.063 0 1.761.421 3.116 1.263 4.062.867.947 1.945 1.42 3.234 1.42Z" fill="#171A1F"/><path d="M38 24.744c5.523 0 10-4.477 10-10s-4.477-10-10-10-10 4.477-10 10 4.477 10 10 10Z" fill="#EF9834"/><path d="M38 48.744c5.523 0 10-4.477 10-10s-4.477-10-10-10-10 4.477-10 10 4.477 10 10 10Z" fill="#FFF42B"/><path d="M5 21.744c0-9.389 7.611-17 17-17v27c0 9.389-7.611 17-17 17v-27Z" fill="#FF402B"/></svg>